# xmcd
#
# Track frame offsets:
#	150
#	26963
#	46834
#	85543
#	121555
#	151372
#	189263
#	224138
#	252234
#	286000
#	316759
#
# Disc length: 4568 seconds
#
# Revision: 6
# Processed by: cddbd v1.5.1PL0 Copyright (c) Steve Scherf et al.
# Submitted via: EasyCDDAExtractor 7.0.9.1
#
DISCID=8911d60b
DTITLE=Various Artist - Back To Love 03.02
DYEAR=2002
DGENRE=Dance
TTITLE0=Turntable Orchestra - You're Gonna Miss Me (Original Mix)
TTITLE1=Victor Romeo feat. Latrice Brown - Love Will Find A Way
TTITLE2=Ann Consuelo - See The Day (Stonebridge Mix)
TTITLE3=Slave To The Vibe - Aftershock (12'' Club Mix)
TTITLE4=Night Crawlers - Push The Feeling On
TTITLE5=Shawn Christopher - Don't Lose The Magic (David Morales Club Mix)
TTITLE6=Djamin feat. Alessandra - Give You (Mix 91 Dancefloor Syndromad Mix)
TTITLE7=House Of Virginism - For You (Doya Dododo Doya) (Stone's Glamarama Clu
TTITLE7=b Mix)
TTITLE8=Pulse - Lover That You Are
TTITLE9=Donna Giles - And I'm Telling You (Stonebridge Mix)
TTITLE10=Todd Terry - Weekend
EXTD=Submitted By: www.djspider.co.uk YEAR: 2002
EXTT0=
EXTT1=
EXTT2=
EXTT3=
EXTT4=
EXTT5=
EXTT6=
EXTT7=
EXTT8=
EXTT9=
EXTT10=
PLAYORDER=
